<svg xmlns="http://www.w3.org/2000/svg" xmlns:xlink="http://www.w3.org/1999/xlink" width="500" zoomAndPan="magnify" viewBox="0 0 375 374.999991" height="500" preserveAspectRatio="xMidYMid meet" version="1.0"><defs><g/><clipPath id="4947ee2c18"><path d="M 155 111 L 237.519531 111 L 237.519531 197.84375 L 155 197.84375 Z M 155 111 " clip-rule="nonzero"/></clipPath><clipPath id="8baca13cbe"><path d="M 137.769531 90.59375 L 237.519531 90.59375 L 237.519531 180 L 137.769531 180 Z M 137.769531 90.59375 " clip-rule="nonzero"/></clipPath></defs><g clip-path="url(#4947ee2c18)"><path fill="#000000" d="M 219.351562 179.769531 L 174.101562 179.769531 L 174.101562 170.734375 L 210.269531 170.734375 C 210.269531 158.785156 210.269531 146.84375 210.269531 134.894531 L 187.644531 121.894531 L 165.019531 134.894531 L 165.019531 188.808594 L 228.433594 188.808594 L 228.433594 161.695312 L 237.511719 161.695312 L 237.511719 197.84375 L 155.929688 197.84375 L 155.929688 129.675781 L 187.636719 111.460938 L 219.34375 129.675781 C 219.34375 146.371094 219.34375 163.070312 219.34375 179.769531 Z M 219.351562 179.769531 " fill-opacity="1" fill-rule="evenodd"/></g><g clip-path="url(#8baca13cbe)"><path fill="#00afef" d="M 146.855469 124.457031 L 187.644531 101.027344 L 228.4375 124.457031 L 228.4375 140.109375 L 237.515625 140.109375 L 237.515625 119.242188 L 187.644531 90.59375 L 137.769531 119.242188 L 137.769531 179.769531 L 146.855469 179.769531 Z M 146.855469 124.457031 " fill-opacity="1" fill-rule="evenodd"/></g><path fill="#00afef" d="M 185.976562 149.882812 L 179.558594 149.882812 L 179.558594 156.265625 L 185.976562 156.265625 Z M 179.558594 146.558594 L 185.976562 146.558594 L 185.976562 140.175781 L 179.558594 140.175781 Z M 189.3125 146.558594 L 195.726562 146.558594 L 195.726562 140.175781 L 189.3125 140.175781 Z M 189.3125 149.882812 L 189.3125 156.265625 L 195.726562 156.265625 L 195.726562 149.882812 Z M 189.3125 149.882812 " fill-opacity="1" fill-rule="evenodd"/><g fill="#00afef" fill-opacity="1"><g transform="translate(66.77168, 234.158188)"><g><path d="M 15.8125 -10.421875 C 15.238281 -10.484375 14.492188 -10.515625 13.578125 -10.515625 L 8.078125 -10.515625 L 8.078125 0 L 3.109375 0 L 3.109375 -24.21875 C 3.441406 -24.195312 3.816406 -24.179688 4.234375 -24.171875 L 5.578125 -24.140625 C 6.492188 -24.109375 7.445312 -24.09375 8.4375 -24.09375 C 11.414062 -24.09375 14.253906 -24.144531 16.953125 -24.25 C 16.828125 -23.1875 16.765625 -21.765625 16.765625 -19.984375 C 16.765625 -19.796875 16.773438 -19.648438 16.796875 -19.546875 L 16.765625 -19.5 C 16.117188 -19.675781 15.222656 -19.765625 14.078125 -19.765625 L 8.078125 -19.765625 L 8.078125 -14.78125 L 13.375 -14.78125 C 14.695312 -14.78125 15.492188 -14.816406 15.765625 -14.890625 Z M 15.8125 -10.421875 "/></g></g></g><g fill="#00afef" fill-opacity="1"><g transform="translate(90.480755, 234.158188)"><g><path d="M 6.65625 0 C 4.875 0 3.691406 0.0351562 3.109375 0.109375 L 3.109375 -24.203125 C 3.398438 -24.128906 4 -24.09375 4.90625 -24.09375 C 5.820312 -24.09375 6.882812 -24.117188 8.09375 -24.171875 L 8.09375 -4.34375 L 11.84375 -4.34375 C 12.9375 -4.34375 13.804688 -4.378906 14.453125 -4.453125 C 14.367188 -1.628906 14.328125 -0.160156 14.328125 -0.046875 L 14.328125 0.125 C 13.148438 0.0390625 11.164062 0 8.375 0 Z M 6.65625 0 "/></g></g></g><g fill="#00afef" fill-opacity="1"><g transform="translate(111.16446, 234.158188)"><g><path d="M 4.875 0.140625 C 3.832031 0.046875 2.617188 0 1.234375 0 L -0.203125 0 L 7.6875 -22.09375 C 8.03125 -23.082031 8.203125 -23.65625 8.203125 -23.8125 C 8.203125 -23.976562 8.195312 -24.082031 8.1875 -24.125 L 8.203125 -24.15625 C 8.992188 -24.113281 9.828125 -24.09375 10.703125 -24.09375 C 11.429688 -24.09375 12.300781 -24.109375 13.3125 -24.140625 L 13.34375 -24.09375 C 13.3125 -24.050781 13.296875 -23.988281 13.296875 -23.90625 C 13.296875 -23.675781 13.476562 -23.0625 13.84375 -22.0625 L 21.890625 0.046875 C 21.648438 0.0351562 21.363281 0.03125 21.03125 0.03125 C 21.03125 0.03125 20.71875 0.0195312 20.09375 0 C 19.789062 0 19.519531 0 19.28125 0 L 16.46875 0 L 14.765625 -5.21875 L 6.578125 -5.21875 Z M 13.359375 -9.5625 L 10.625 -18 L 7.953125 -9.5625 Z M 13.359375 -9.5625 "/></g></g></g><g fill="#00afef" fill-opacity="1"><g transform="translate(138.043832, 234.158188)"><g><path d="M 11.8125 0.109375 C 11.226562 0.0351562 9.738281 0 7.34375 0 L 6.765625 0 L 6.765625 -20.046875 L 3.171875 -20.046875 C 2.109375 -20.046875 1.476562 -19.988281 1.28125 -19.875 C 1.09375 -19.769531 0.941406 -19.675781 0.828125 -19.59375 L 0.78125 -19.609375 L 0.78125 -24.25 L 0.828125 -24.296875 C 1.234375 -24.160156 2.3125 -24.09375 4.0625 -24.09375 L 15.421875 -24.09375 C 16.484375 -24.09375 17.109375 -24.144531 17.296875 -24.25 C 17.492188 -24.363281 17.644531 -24.460938 17.75 -24.546875 L 17.8125 -24.53125 L 17.8125 -19.890625 L 17.75 -19.84375 C 17.351562 -19.976562 16.28125 -20.046875 14.53125 -20.046875 L 11.8125 -20.046875 Z M 11.8125 0.109375 "/></g></g></g><g fill="#00afef" fill-opacity="1"><g transform="translate(161.825374, 234.158188)"><g><path d="M 15.8125 -10.421875 C 15.238281 -10.484375 14.492188 -10.515625 13.578125 -10.515625 L 8.078125 -10.515625 L 8.078125 0 L 3.109375 0 L 3.109375 -24.21875 C 3.441406 -24.195312 3.816406 -24.179688 4.234375 -24.171875 L 5.578125 -24.140625 C 6.492188 -24.109375 7.445312 -24.09375 8.4375 -24.09375 C 11.414062 -24.09375 14.253906 -24.144531 16.953125 -24.25 C 16.828125 -23.1875 16.765625 -21.765625 16.765625 -19.984375 C 16.765625 -19.796875 16.773438 -19.648438 16.796875 -19.546875 L 16.765625 -19.5 C 16.117188 -19.675781 15.222656 -19.765625 14.078125 -19.765625 L 8.078125 -19.765625 L 8.078125 -14.78125 L 13.375 -14.78125 C 14.695312 -14.78125 15.492188 -14.816406 15.765625 -14.890625 Z M 15.8125 -10.421875 "/></g></g></g><g fill="#00afef" fill-opacity="1"><g transform="translate(185.534452, 234.158188)"><g><path d="M 3.671875 -24.171875 C 4.878906 -24.117188 5.613281 -24.09375 5.875 -24.09375 L 7.171875 -24.09375 C 7.816406 -24.09375 8.332031 -24.144531 8.71875 -24.25 L 8.703125 0 L 3.671875 0 Z M 3.671875 -24.171875 "/></g></g></g><g fill="#00afef" fill-opacity="1"><g transform="translate(203.120323, 234.158188)"><g><path d="M 3.28125 0 C 3.351562 -0.40625 3.390625 -0.851562 3.390625 -1.34375 L 3.390625 -24.09375 L 7.015625 -24.09375 L 16.609375 -8.984375 L 16.609375 -22.875 C 16.609375 -23.53125 16.550781 -23.9375 16.4375 -24.09375 L 21.328125 -24.09375 C 21.265625 -23.613281 21.234375 -23.082031 21.234375 -22.5 L 21.234375 0 L 17.46875 0 L 8.015625 -14.515625 L 8.015625 0 Z M 3.28125 0 "/></g></g></g><g fill="#00afef" fill-opacity="1"><g transform="translate(232.934492, 234.158188)"><g><path d="M 8.984375 0.453125 C 7.023438 0.453125 5.179688 0.296875 3.453125 -0.015625 L 3.453125 -24.265625 C 5.054688 -24.453125 6.910156 -24.546875 9.015625 -24.546875 C 11.117188 -24.546875 13.023438 -24.257812 14.734375 -23.6875 C 16.441406 -23.113281 17.875 -22.296875 19.03125 -21.234375 C 21.34375 -19.109375 22.5 -16.128906 22.5 -12.296875 C 22.5 -8.015625 21.207031 -4.757812 18.625 -2.53125 C 16.300781 -0.539062 13.085938 0.453125 8.984375 0.453125 Z M 8.171875 -3.96875 C 8.953125 -3.820312 9.734375 -3.75 10.515625 -3.75 C 11.304688 -3.75 12.15625 -3.898438 13.0625 -4.203125 C 13.96875 -4.515625 14.753906 -5 15.421875 -5.65625 C 16.847656 -7.03125 17.5625 -9.035156 17.5625 -11.671875 C 17.5625 -15.992188 15.984375 -18.648438 12.828125 -19.640625 C 11.785156 -19.960938 10.582031 -20.125 9.21875 -20.125 L 8.734375 -20.125 C 8.554688 -20.125 8.367188 -20.117188 8.171875 -20.109375 Z M 8.171875 -3.96875 "/></g></g></g><g fill="#00afef" fill-opacity="1"><g transform="translate(262.839241, 234.158188)"><g><path d="M 15.234375 -4.34375 C 15.984375 -4.34375 16.503906 -4.414062 16.796875 -4.5625 L 16.875 -4.546875 L 16.6875 0 L 3.109375 0 L 3.109375 -24.21875 C 3.441406 -24.195312 3.804688 -24.179688 4.203125 -24.171875 L 5.46875 -24.140625 C 6.3125 -24.109375 7.226562 -24.09375 8.21875 -24.09375 C 10.988281 -24.09375 13.726562 -24.144531 16.4375 -24.25 C 16.300781 -23.1875 16.234375 -21.765625 16.234375 -19.984375 C 16.234375 -19.796875 16.242188 -19.648438 16.265625 -19.546875 L 16.234375 -19.5 C 15.609375 -19.675781 14.710938 -19.765625 13.546875 -19.765625 L 7.84375 -19.765625 L 7.84375 -15.140625 L 12.140625 -15.140625 C 13.472656 -15.140625 14.269531 -15.175781 14.53125 -15.25 L 14.59375 -10.78125 C 14.007812 -10.84375 13.257812 -10.875 12.34375 -10.875 L 7.84375 -10.875 L 7.84375 -4.34375 Z M 15.234375 -4.34375 "/></g></g></g><g fill="#00afef" fill-opacity="1"><g transform="translate(286.620772, 234.158188)"><g><path d="M 10.90625 -9.375 C 10.539062 -9.34375 10.148438 -9.328125 9.734375 -9.328125 C 9.328125 -9.328125 8.722656 -9.359375 7.921875 -9.421875 L 7.921875 0 L 3.109375 0 L 3.109375 -24.21875 C 4.804688 -24.4375 6.882812 -24.546875 9.34375 -24.546875 C 12.707031 -24.546875 15.210938 -23.925781 16.859375 -22.6875 C 18.503906 -21.457031 19.328125 -19.546875 19.328125 -16.953125 C 19.328125 -14.953125 18.570312 -13.238281 17.0625 -11.8125 C 16.570312 -11.351562 16.003906 -10.957031 15.359375 -10.625 L 19.0625 -2.828125 C 19.789062 -1.222656 20.347656 -0.269531 20.734375 0.03125 L 20.640625 0.125 C 19.460938 -0.0625 17.617188 -0.0546875 15.109375 0.140625 Z M 9.6875 -20.28125 C 9.070312 -20.28125 8.484375 -20.25 7.921875 -20.1875 L 7.921875 -13.265625 C 8.515625 -13.179688 9.207031 -13.140625 10 -13.140625 C 10.800781 -13.140625 11.472656 -13.207031 12.015625 -13.34375 C 12.554688 -13.476562 13.023438 -13.691406 13.421875 -13.984375 C 14.285156 -14.628906 14.71875 -15.59375 14.71875 -16.875 C 14.71875 -18.15625 14.269531 -19.050781 13.375 -19.5625 C 12.539062 -20.039062 11.3125 -20.28125 9.6875 -20.28125 Z M 9.6875 -20.28125 "/></g></g></g><g fill="#000000" fill-opacity="1"><g transform="translate(166.476247, 265.950862)"><g><path d="M 1.625 -14.203125 C 2.601562 -14.328125 3.613281 -14.390625 4.65625 -14.390625 C 6.582031 -14.390625 8.046875 -13.9375 9.046875 -13.03125 C 10.046875 -12.132812 10.546875 -10.785156 10.546875 -8.984375 C 10.546875 -7.378906 10 -6.109375 8.90625 -5.171875 C 7.875 -4.296875 6.550781 -3.859375 4.9375 -3.859375 C 4.75 -3.859375 4.546875 -3.867188 4.328125 -3.890625 L 4.328125 0 L 1.625 0 Z M 4.96875 -11.828125 C 4.757812 -11.828125 4.546875 -11.820312 4.328125 -11.8125 L 4.328125 -6.21875 C 4.554688 -6.195312 4.832031 -6.1875 5.15625 -6.1875 C 5.488281 -6.1875 5.832031 -6.253906 6.1875 -6.390625 C 6.539062 -6.523438 6.835938 -6.71875 7.078125 -6.96875 C 7.578125 -7.476562 7.828125 -8.15625 7.828125 -9 C 7.828125 -10.882812 6.875 -11.828125 4.96875 -11.828125 Z M 4.96875 -11.828125 "/></g></g></g><g fill="#000000" fill-opacity="1"><g transform="translate(178.458995, 265.950862)"><g><path d="M 6.390625 -5.484375 C 6.179688 -5.472656 5.957031 -5.46875 5.71875 -5.46875 C 5.476562 -5.46875 5.117188 -5.484375 4.640625 -5.515625 L 4.640625 0 L 1.828125 0 L 1.828125 -14.203125 C 2.816406 -14.328125 4.035156 -14.390625 5.484375 -14.390625 C 7.453125 -14.390625 8.914062 -14.023438 9.875 -13.296875 C 10.84375 -12.578125 11.328125 -11.457031 11.328125 -9.9375 C 11.328125 -8.757812 10.882812 -7.753906 10 -6.921875 C 9.707031 -6.648438 9.375 -6.414062 9 -6.21875 L 11.171875 -1.65625 C 11.597656 -0.71875 11.925781 -0.160156 12.15625 0.015625 L 12.09375 0.078125 C 11.40625 -0.0351562 10.328125 -0.0351562 8.859375 0.078125 Z M 5.6875 -11.890625 C 5.320312 -11.890625 4.972656 -11.867188 4.640625 -11.828125 L 4.640625 -7.78125 C 4.984375 -7.726562 5.390625 -7.703125 5.859375 -7.703125 C 6.328125 -7.703125 6.71875 -7.738281 7.03125 -7.8125 C 7.351562 -7.894531 7.632812 -8.023438 7.875 -8.203125 C 8.375 -8.578125 8.625 -9.140625 8.625 -9.890625 C 8.625 -10.640625 8.363281 -11.164062 7.84375 -11.46875 C 7.351562 -11.75 6.632812 -11.890625 5.6875 -11.890625 Z M 5.6875 -11.890625 "/></g></g></g><g fill="#000000" fill-opacity="1"><g transform="translate(192.215142, 265.950862)"><g><path d="M 2.984375 -1.671875 C 2.335938 -2.296875 1.828125 -3.035156 1.453125 -3.890625 C 1.085938 -4.753906 0.90625 -5.703125 0.90625 -6.734375 C 0.90625 -7.765625 1.078125 -8.738281 1.421875 -9.65625 C 1.765625 -10.582031 2.257812 -11.394531 2.90625 -12.09375 C 3.550781 -12.789062 4.328125 -13.347656 5.234375 -13.765625 C 6.148438 -14.179688 7.175781 -14.390625 8.3125 -14.390625 C 10.269531 -14.390625 11.914062 -13.773438 13.25 -12.546875 C 14.6875 -11.222656 15.40625 -9.445312 15.40625 -7.21875 C 15.40625 -5.050781 14.664062 -3.25 13.1875 -1.8125 C 12.28125 -0.925781 11.203125 -0.316406 9.953125 0.015625 C 9.335938 0.179688 8.613281 0.265625 7.78125 0.265625 C 6.957031 0.265625 6.113281 0.0976562 5.25 -0.234375 C 4.382812 -0.578125 3.628906 -1.054688 2.984375 -1.671875 Z M 3.859375 -6.875 C 3.859375 -6.21875 3.96875 -5.613281 4.1875 -5.0625 C 4.40625 -4.507812 4.707031 -4.035156 5.09375 -3.640625 C 5.925781 -2.804688 6.992188 -2.390625 8.296875 -2.390625 C 9.535156 -2.390625 10.53125 -2.789062 11.28125 -3.59375 C 12.039062 -4.414062 12.421875 -5.546875 12.421875 -6.984375 C 12.421875 -8.328125 12.054688 -9.445312 11.328125 -10.34375 C 10.546875 -11.300781 9.472656 -11.78125 8.109375 -11.78125 C 6.785156 -11.78125 5.734375 -11.296875 4.953125 -10.328125 C 4.222656 -9.410156 3.859375 -8.257812 3.859375 -6.875 Z M 3.859375 -6.875 "/></g></g></g></svg>